<?xml version="1.0" encoding="UTF-8"?>
<svg version="1.1" xmlns="http://www.w3.org/2000/svg" width="1024" height="600">
<path d="M0 0 C337.92 0 675.84 0 1024 0 C1024 198 1024 396 1024 600 C686.08 600 348.16 600 0 600 C0 402 0 204 0 0 Z " fill="#FEFEFE" transform="translate(0,0)"/>
<path d="M0 0 C7.52556829 -0.07636215 15.05103582 -0.12873076 22.5769043 -0.16479492 C25.13455947 -0.1798371 27.69218904 -0.20027589 30.24975586 -0.22631836 C33.93609963 -0.26290204 37.62210091 -0.27977268 41.30859375 -0.29296875 C42.44332626 -0.30845261 43.57805878 -0.32393646 44.74717712 -0.33988953 C54.69918073 -0.34197669 62.3440785 1.46056705 70 8 C70.6875 10.16015625 70.6875 10.16015625 71 12 C71.66 12 72.32 12 73 12 C77.74432875 21.4886575 73.58540866 38.38458396 71.52685547 48.34960938 C70.37760096 54.13103056 69.397881 59.94515958 68.375 65.75 C67.94640596 68.16165292 67.51678135 70.573123 67.0859375 72.984375 C66.9007959 74.02303711 66.7156543 75.06169922 66.52490234 76.13183594 C66.04378106 78.76077216 65.52742865 81.38004839 65 84 C56.14179379 84.11616439 47.28385224 84.20485133 38.42504883 84.25906086 C34.31092303 84.285087 30.19732069 84.32035526 26.08349609 84.37719727 C22.10880433 84.4317693 18.13461409 84.461473 14.15957642 84.47438622 C12.64775708 84.48358126 11.13596329 84.50153712 9.62435913 84.52865028 C-5.82752 84.79462873 -5.82752 84.79462873 -12 79 C-16.84872271 74.04277739 -17.49246364 69.21988035 -17.5625 62.5 C-17.44992506 56.20995949 -16.97185521 51.0999561 -13 46 C-12.50242187 45.31679687 -12.00484375 44.63359375 -11.4921875 43.9296875 C-6.87016063 38.10378386 -1.38727167 33.79302018 6.04711914 32.44921875 C10.61227418 31.93041909 15.06335537 31.87482523 19.65234375 31.90234375 C20.55247696 31.9037587 21.45261017 31.90517365 22.38002014 31.90663147 C25.23254837 31.9121934 28.08499581 31.92473873 30.9375 31.9375 C32.88085824 31.94251992 34.82421771 31.94708197 36.76757812 31.95117188 C41.5117495 31.96215034 46.25586109 31.97938847 51 32 C50.99395469 30.41613005 50.94360095 28.83239517 50.875 27.25 C50.85179687 26.36828125 50.82859375 25.4865625 50.8046875 24.578125 C50.16062175 21.78495668 50.16062175 21.78495668 47.61083984 19.70996094 C42.75742443 17.41156191 38.6591984 17.39731182 33.3515625 17.390625 C32.33903412 17.37408875 31.32650574 17.35755249 30.28329468 17.34051514 C27.06380096 17.2921073 23.84477938 17.27067969 20.625 17.25 C18.43617426 17.22183437 16.24737044 17.19190611 14.05859375 17.16015625 C8.70581467 17.08635051 3.35316798 17.03466569 -2 17 C-2.3690205 5.47835991 -2.3690205 5.47835991 0 0 Z " fill="#0C4E94" transform="translate(674,199)"/>
<path d="M0 0 C7.81040149 -0.07633893 15.62070601 -0.12872116 23.43139648 -0.16479492 C26.08619776 -0.1781397 28.74050853 -0.20028011 31.39526367 -0.22631836 C35.22060252 -0.26288673 39.04561142 -0.27976928 42.87109375 -0.29296875 C44.04957382 -0.30845261 45.22805389 -0.32393646 46.44224548 -0.33988953 C54.73301842 -0.34156615 61.32244976 0.57142909 68.3125 5.1875 C73.53602644 10.65398116 75.47676778 15.87036528 75.40039062 23.40820312 C75.37138672 24.24287109 75.34238281 25.07753906 75.3125 25.9375 C75.30283203 26.79923828 75.29316406 27.66097656 75.28320312 28.54882812 C75.16934816 34.83065184 75.16934816 34.83065184 74 36 C73.67791192 37.5774589 73.41117874 39.16628298 73.16796875 40.7578125 C73.00876953 41.77875 72.84957031 42.7996875 72.68554688 43.8515625 C72.43901367 45.47191406 72.43901367 45.47191406 72.1875 47.125 C70.29609111 59.44709 68.15849555 71.72226253 66 84 C57.12448297 84.09286954 48.24913439 84.1638505 39.37323666 84.20724869 C35.25133482 84.22808259 31.12976654 84.25632261 27.00805664 84.30175781 C23.02690435 84.34536665 19.04607197 84.36916865 15.06469917 84.37950897 C13.54929128 84.38687351 12.03389998 84.4012548 10.51862907 84.42292023 C1.40369923 84.5480083 -5.01218559 84.57785706 -11.99609375 78.16796875 C-17.05180809 71.22149945 -17.03251988 64.34026832 -16 56 C-13.95986944 47.46545382 -9.18256346 40.95724897 -2 36 C4.66428334 33.19580697 11.22640186 32.53972218 18.3828125 32.48828125 C19.79323318 32.46135445 19.79323318 32.46135445 21.23214722 32.43388367 C24.19638763 32.38027477 27.16047173 32.34604522 30.125 32.3125 C32.1510632 32.27928319 34.17710589 32.24478959 36.203125 32.20898438 C41.13530289 32.12457744 46.06743842 32.05753278 51 32 C51 28.7 51 25.4 51 22 C44.58872068 18.22943204 39.74817104 17.40023122 32.375 17.390625 C31.38749756 17.37408875 30.39999512 17.35755249 29.38256836 17.34051514 C26.25498087 17.29226213 23.12787881 17.27071443 20 17.25 C17.86846546 17.22182138 15.73695331 17.19189132 13.60546875 17.16015625 C8.40373331 17.08650976 3.2021331 17.03473462 -2 17 C-1.85786703 15.10388566 -1.71113093 13.20811606 -1.5625 11.3125 C-1.48128906 10.25675781 -1.40007812 9.20101562 -1.31640625 8.11328125 C-1.0351936 5.34628765 -0.5663679 2.71896904 0 0 Z " fill="#0B4D93" transform="translate(303,199)"/>
<path d="M0 0 C9.24 0 18.48 0 28 0 C29.57871651 7.21698974 31.10050137 14.42216129 32.4375 21.6875 C33.58815443 27.93346638 34.82795485 34.15776363 36.125 40.375 C36.29572021 41.20217529 36.46644043 42.02935059 36.64233398 42.8815918 C37.46869481 47.05537241 37.46869481 47.05537241 39 51 C39.30402102 52.57729717 39.56703941 54.16253528 39.8125 55.75 C40.83182363 62.0993747 41.96898369 68.42414876 43.125 74.75 C43.30780518 75.7512793 43.49061035 76.75255859 43.67895508 77.78417969 C44.118588 80.18958497 44.5589082 82.59486188 45 85 C45.66 85 46.32 85 47 85 C47.11972168 84.26096436 47.23944336 83.52192871 47.36279297 82.76049805 C47.98831295 80.05063046 48.80098153 78.21860056 50.1953125 75.83203125 C50.88633057 74.63646606 50.88633057 74.63646606 51.59130859 73.41674805 C52.35048584 72.12764526 52.35048584 72.12764526 53.125 70.8125 C53.65561035 69.89831299 54.1862207 68.98412598 54.73291016 68.04223633 C55.88241807 66.06208515 57.03470829 64.08354711 58.18945312 62.10644531 C60.01730904 58.97030201 61.83115282 55.8264697 63.640625 52.6796875 C70.49520046 40.75986188 77.39205277 28.86529715 84.34521484 17.00268555 C84.88355957 16.08269775 85.4219043 15.16270996 85.9765625 14.21484375 C86.44143066 13.42198975 86.90629883 12.62913574 87.38525391 11.81225586 C89.63232284 7.89874103 91.80841462 3.94485369 94 0 C103.24 0 112.48 0 122 0 C115.24325892 12.38735865 115.24325892 12.38735865 112.7734375 16.4375 C112.22276611 17.34218018 111.67209473 18.24686035 111.10473633 19.17895508 C110.24851685 20.57537231 110.24851685 20.57537231 109.375 22 C108.76744873 22.99475342 108.15989746 23.98950684 107.53393555 25.0144043 C103.19382674 32.10164647 98.77928482 39.13927821 94.32519531 46.15527344 C89.63632087 53.54842896 85.06797039 61.01192509 80.52294922 68.49414062 C78.8210634 71.29442213 77.11578293 74.09262052 75.41015625 76.890625 C74.16920411 78.92704268 72.92831796 80.96350057 71.6875 83 C71.11273926 83.94327148 70.53797852 84.88654297 69.94580078 85.85839844 C66.72594776 91.14795693 63.52533218 96.44822548 60.35205078 101.76586914 C58.60970144 104.64492996 56.80462194 107.48086114 54.98046875 110.30859375 C53.83872123 112.14685677 53.83872123 112.14685677 53 115 C44.42 115 35.84 115 27 115 C26.5875 112.64875 26.175 110.2975 25.75 107.875 C24.14868663 99.13267041 21.83993021 90.67577605 19.09863281 82.21948242 C16.62456286 74.46038551 14.71543713 66.68177848 13.04919434 58.71218872 C12.31622477 55.21370915 11.5610033 51.72005823 10.8046875 48.2265625 C10.6538269 47.52924515 10.50296631 46.8319278 10.34753418 46.11347961 C8.92283572 39.56974077 7.37269968 33.06001264 5.75 26.5625 C5.51619629 25.61785889 5.28239258 24.67321777 5.04150391 23.69995117 C3.79618105 18.77793962 2.38460326 14.02156953 0.55957031 9.28100586 C0 7 0 7 0 0 Z " fill="#0A4C93" transform="translate(193,168)"/>
<path d="M0 0 C-0.33 0.66 -0.66 1.32 -1 2 C28.7 2.495 28.7 2.495 59 3 C57.53867783 7.38396651 56.416361 10.26562391 54 14 C56.97 14.33 59.94 14.66 63 15 C63.10871967 17.54283234 63.18762401 20.08095088 63.25 22.625 C63.28351563 23.33785156 63.31703125 24.05070312 63.3515625 24.78515625 C63.4473352 30.00476818 62.46092239 32.87351561 59 37 C55.68681498 40.10312321 53.40528662 40.35890127 48.921875 40.29296875 C47.76171875 40.28330078 46.6015625 40.27363281 45.40625 40.26367188 C44.1996875 40.23853516 42.993125 40.21339844 41.75 40.1875 C39.91695312 40.16719727 39.91695312 40.16719727 38.046875 40.14648438 C35.03080502 40.1111398 32.01562513 40.0617956 29 40 C29.33 40.66 29.66 41.32 30 42 C31.91352846 42.12619896 33.83235023 42.17580701 35.75 42.1875 C41.44161306 42.52628649 41.44161306 42.52628649 43.90625 44.6171875 C45.25 46.5625 45.25 46.5625 47 50 C48.50559539 48.03617993 49.89131683 46.21736634 51 44 C55.29 44 59.58 44 64 44 C62.16461042 49.87324664 60.30310714 55.75782186 57 61 C56.01 61.495 56.01 61.495 55 62 C55.6496875 62.98742187 56.299375 63.97484375 56.96875 64.9921875 C57.81273833 66.28630293 58.65647535 67.58058229 59.5 68.875 C59.92925781 69.52597656 60.35851562 70.17695313 60.80078125 70.84765625 C64 75.7734375 64 75.7734375 64 78 C59.15140304 78.73535262 54.82697768 78.9737345 50 78 C46.02388146 74.65873628 43.72278504 70.61462035 41.1875 66.125 C40.49355668 64.98285456 39.7950152 63.84348958 39.09179688 62.70703125 C36.95264269 59.19435918 34.83996139 55.67992277 33 52 C32.96261719 53.15757812 32.92523438 54.31515625 32.88671875 55.5078125 C32.82102575 57.04690561 32.75457958 58.5859667 32.6875 60.125 C32.66494141 60.88554687 32.64238281 61.64609375 32.61914062 62.4296875 C32.38968125 67.26919425 31.77438378 70.87210891 29 75 C24.62048001 78.93414507 19.74441416 78.34911048 14.1875 78.1875 C12.86202148 78.16719727 12.86202148 78.16719727 11.50976562 78.14648438 C9.33957977 78.11129217 7.16970967 78.05748985 5 78 C5.99 75.03 6.98 72.06 8 69 C10.64 68.67 13.28 68.34 16 68 C16.495 66.515 16.495 66.515 17 65 C15.82824219 65.34611328 15.82824219 65.34611328 14.6328125 65.69921875 C5.95647704 68.14366516 -2.77500137 70.03691859 -11.625 71.75 C-12.76308105 71.97260498 -13.90116211 72.19520996 -15.07373047 72.42456055 C-16.15541504 72.62992432 -17.23709961 72.83528809 -18.3515625 73.046875 C-19.31916504 73.23088867 -20.28676758 73.41490234 -21.28369141 73.60449219 C-23.90089956 73.98557049 -26.35984037 74.07325437 -29 74 C-29 71.69 -29 69.38 -29 67 C-20.4006092 64.72863585 -11.74692263 62.87951805 -3.01489258 61.21020508 C-0.90809641 60.80687085 1.19733908 60.39690573 3.30273438 59.98632812 C4.65096672 59.72617379 5.99927137 59.46639381 7.34765625 59.20703125 C8.55429932 58.9747583 9.76094238 58.74248535 11.00415039 58.50317383 C14 58 14 58 17 58 C17 57.01 17 56.02 17 55 C16.23034912 55.16604736 15.46069824 55.33209473 14.66772461 55.50317383 C-11.16125564 61.07064673 -11.16125564 61.07064673 -20.0625 62.875 C-21.16722656 63.09929687 -22.27195312 63.32359375 -23.41015625 63.5546875 C-26 64 -26 64 -29 64 C-29 61.36 -29 58.72 -29 56 C-28.11328613 55.82871582 -27.22657227 55.65743164 -26.31298828 55.48095703 C-22.97683779 54.83635966 -19.64074442 54.19146812 -16.3046875 53.54638672 C-14.86948841 53.26892776 -13.43426761 52.99158109 -11.99902344 52.71435547 C-10.60484728 52.44504808 -9.21070229 52.17557932 -7.81658936 51.90594482 C-6.44789232 51.64126216 -5.07911822 51.37697767 -3.71026611 51.11309814 C0.86561538 50.22850521 5.43121792 49.30218868 9.98876953 48.32763672 C12 48 12 48 16 48 C16 47.34 16 46.68 16 46 C11.76814875 46.81745555 7.53638178 47.63534568 3.3046875 48.45361328 C1.86948841 48.73107224 0.43426761 49.00841891 -1.00097656 49.28564453 C-2.39515272 49.55495192 -3.78929771 49.82442068 -5.18341064 50.09405518 C-6.55210768 50.35873784 -7.92088178 50.62302233 -9.28973389 50.88690186 C-13.86561538 51.77149479 -18.43121792 52.69781132 -22.98876953 53.67236328 C-25 54 -25 54 -29 54 C-29 51.36 -29 48.72 -29 46 C-16.13 43.525 -16.13 43.525 -3 41 C-11.25 40.67 -19.5 40.34 -28 40 C-28 31.75 -28 23.5 -28 15 C-6.22 15 15.56 15 38 15 C38 14.34 38 13.68 38 13 C17.21 12.67 -3.58 12.34 -25 12 C-24.34 10.68 -23.68 9.36 -23 8 C-22.69964844 7.29359375 -22.39929688 6.5871875 -22.08984375 5.859375 C-17.3801894 -2.76168721 -8.55799636 -0.68616452 0 0 Z " fill="#2E2A2B" transform="translate(436,339)"/>
<path d="M0 0 C7.92 0 15.84 0 24 0 C22.54336515 10.70626612 21.01842527 21.33510783 18.9375 31.9375 C15.92479129 46.35735281 15.92479129 46.35735281 15 61 C15.845625 60.21496094 16.69125 59.42992187 17.5625 58.62109375 C29.71115865 47.3626308 29.71115865 47.3626308 33.98046875 43.8671875 C36.1630508 41.94978621 36.1630508 41.94978621 38.23828125 39.1328125 C41.95482295 34.6398186 45.12983768 31.4561005 51.08496094 30.50976562 C58.73782191 30.04021209 66.36359929 30.39306064 74 31 C74 31.66 74 32.32 74 33 C72.59321977 34.24814331 71.12120296 35.4230839 69.625 36.5625 C65.97755265 39.40453352 62.47406243 42.3161668 59.0625 45.4375 C54.62656117 49.48739985 50.03078383 53.29470881 45.34765625 57.0546875 C43.03927203 58.89324251 43.03927203 58.89324251 41.30859375 60.7578125 C40 62 40 62 38 62 C38 62.66 38 63.32 38 64 C38.89203125 63.97679687 39.7840625 63.95359375 40.703125 63.9296875 C41.87359375 63.91164062 43.0440625 63.89359375 44.25 63.875 C45.41015625 63.85179687 46.5703125 63.82859375 47.765625 63.8046875 C50.8781965 63.99264472 52.44736946 64.29049344 55 66 C60.88027214 72.72031101 60.52430294 78.62774109 60.20556641 87.1796875 C59.52476707 96.52006033 57.60934674 105.79654835 56 115 C48.08 115 40.16 115 32 115 C32.75044056 102.61773078 32.75044056 102.61773078 34.02734375 99.45703125 C35.21271732 96.46265384 35.23174939 94.08509201 35.1875 90.875 C35.17783203 89.32425781 35.17783203 89.32425781 35.16796875 87.7421875 C35.11257378 84.90833023 35.11257378 84.90833023 34 82 C26.08 82 18.16 82 10 82 C9.42540618 86.94958068 9.42540618 86.94958068 8.86376953 91.90063477 C8.31661648 96.43922887 7.28906729 100.60284824 6 105 C5.01 109.95 5.01 109.95 4 115 C-3.92 115 -11.84 115 -20 115 C-19.396479 108.96478995 -18.84954641 103.8193629 -17.4765625 98.05078125 C-16.85738492 95.38628756 -16.41581877 92.70282199 -16 90 C-15.34 90 -14.68 90 -14 90 C-13.96261719 89.36578125 -13.92523437 88.7315625 -13.88671875 88.078125 C-13.39541514 81.10354038 -12.52366913 74.2273511 -11.5 67.3125 C-11.36940186 66.41499023 -11.23880371 65.51748047 -11.10424805 64.59277344 C-10.97703369 63.75391602 -10.84981934 62.91505859 -10.71875 62.05078125 C-10.54762695 60.91636597 -10.54762695 60.91636597 -10.37304688 59.7590332 C-10 58 -10 58 -9 57 C-8.74944253 55.54364647 -8.55581055 54.0774188 -8.38671875 52.609375 C-8.21934204 51.21887939 -8.21934204 51.21887939 -8.04858398 49.80029297 C-7.86984741 48.29039795 -7.86984741 48.29039795 -7.6875 46.75 C-6.47954741 36.98412684 -4.83028879 27.37954245 -2.91796875 17.73046875 C-1.75501242 11.84455827 -0.85859111 5.93858852 0 0 Z " fill="#0C4E94" transform="translate(766,168)"/>
<path d="M0 0 C7.8470584 -0.05080046 15.69407422 -0.0857759 23.54125977 -0.10986328 C26.20963257 -0.11877541 28.87779002 -0.13354451 31.54614258 -0.15087891 C35.38625805 -0.17519702 39.2262277 -0.18649932 43.06640625 -0.1953125 C44.25520889 -0.20563507 45.44401154 -0.21595764 46.6688385 -0.22659302 C54.31707576 -0.227624 60.89135194 -0.02978972 67.25 4.6875 C67.89453125 5.14511719 68.5390625 5.60273438 69.203125 6.07421875 C74.21350834 11.44404264 74.43427037 17.28890766 74.25 24.25 C74.23356445 25.49873901 74.23356445 25.49873901 74.21679688 26.77270508 C74.10766989 32.87610635 73.76254171 38.94051673 73 45 C72.34 45 71.68 45 71 45 C70.96261719 45.71542969 70.92523438 46.43085938 70.88671875 47.16796875 C70.44619272 53.84496136 69.42990535 60.10383296 67.83203125 66.59765625 C66.42050105 72.36968818 65.2330138 78.18722064 64 84 C56.41 84 48.82 84 41 84 C41.6184846 77.81515395 42.26218998 71.83365293 43.375 65.75 C43.50511475 65.02329102 43.63522949 64.29658203 43.76928711 63.54785156 C44.60955877 58.92711444 45.55388766 54.33739419 46.5625 49.75 C49.83594444 35.49837179 49.83594444 35.49837179 50 21 C46.42330916 18.16158159 43.5379404 17.60353693 39.04296875 17.48828125 C37.93115234 17.45283203 36.81933594 17.41738281 35.67382812 17.38085938 C34.52333984 17.35830078 33.37285156 17.33574219 32.1875 17.3125 C31.01767578 17.27833984 29.84785156 17.24417969 28.64257812 17.20898438 C25.76181446 17.12667684 22.88134862 17.05746822 20 17 C20.00507568 17.67474365 20.01015137 18.3494873 20.01538086 19.04467773 C20.01932861 19.93614502 20.02327637 20.8276123 20.02734375 21.74609375 C20.03241943 22.6270874 20.03749512 23.50808105 20.04272461 24.41577148 C19.89913545 33.10086455 19.89913545 33.10086455 18 35 C17.67870154 36.39555204 17.41160272 37.8036596 17.16796875 39.21484375 C17.01102539 40.11710693 16.85408203 41.01937012 16.69238281 41.94897461 C16.44246582 43.42829468 16.44246582 43.42829468 16.1875 44.9375 C16.01444336 45.94627197 15.84138672 46.95504395 15.66308594 47.99438477 C13.62972209 59.97382877 11.81828804 71.98631116 10 84 C2.08 84 -5.84 84 -14 84 C-12.89679715 74.07117438 -12.89679715 74.07117438 -12.0625 70.4375 C-11.20962396 66.38173698 -10.69099311 62.37039019 -10.25 58.25 C-9.18430864 48.72664863 -7.15474514 39.37264767 -5.20800781 29.99902344 C-3.75977559 22.98913898 -2.46713483 15.99190241 -1.4296875 8.90893555 C-0.99002156 5.93244707 -0.50262799 2.96644208 0 0 Z " fill="#0B4D94" transform="translate(390,199)"/>
<path d="M0 0 C4.04042673 -0.26233625 8.07866481 -0.42150491 12.125 -0.5625 C13.26710938 -0.63791016 14.40921875 -0.71332031 15.5859375 -0.79101562 C23.86223744 -1.00754673 23.86223744 -1.00754673 27.00732422 1.77758789 C28.5988827 4.11595459 29.82192753 6.43051741 31 9 C31.70487696 10.3142595 32.41053288 11.62810171 33.1171875 12.94140625 C33.70949057 14.14532662 34.29558946 15.35232207 34.875 16.5625 C35.18179688 17.18962891 35.48859375 17.81675781 35.8046875 18.46289062 C36.54219301 19.97247221 37.27198645 21.48581797 38 23 C41.83945182 21.48147523 43.67491055 19.22197262 46.1875 16 C47.28781946 14.5955106 48.39199351 13.19345193 49.53295898 11.82177734 C50.68117794 10.3959145 51.76122991 8.91510641 52.81274414 7.41650391 C55.90671101 3.37883954 58.19214635 0.44528549 63.25512695 -0.80175781 C66.90649138 -0.98257093 70.41595286 -0.8770208 74.0625 -0.625 C75.30966797 -0.57988281 76.55683594 -0.53476563 77.84179688 -0.48828125 C80.89960083 -0.37112401 83.94721406 -0.20741203 87 0 C85.97142404 3.08572787 84.81526603 4.31948783 82.52050781 6.52294922 C79.52926064 9.42870474 76.72254163 12.51691917 73.875 15.5625 C72.88910889 16.61606689 72.88910889 16.61606689 71.88330078 17.69091797 C63.37372553 26.78318671 63.37372553 26.78318671 55 36 C54.30596069 36.77512939 54.30596069 36.77512939 53.59790039 37.56591797 C50.72644722 40.78079336 50.72644722 40.78079336 49.6875 44.875 C49.790625 45.57625 49.89375 46.2775 50 47 C50.66 47 51.32 47 52 47 C55.25 52.6875 55.25 52.6875 56.29492188 54.52270508 C58.57728767 58.52722861 60.88166602 62.51799563 63.203125 66.5 C63.74807617 67.44012939 64.29302734 68.38025879 64.85449219 69.34887695 C65.94378451 71.22798702 67.038121 73.10418287 68.13769531 74.97729492 C68.63881836 75.84459229 69.13994141 76.71188965 69.65625 77.60546875 C70.33397461 78.76792114 70.33397461 78.76792114 71.02539062 79.95385742 C72 82 72 82 72 85 C63.09 85 54.18 85 45 85 C34 64.83333333 34 64.83333333 34 61 C30.8376284 62.37196165 29.0063782 63.8565122 26.8125 66.5 C23.30327145 70.65347137 19.6769511 74.6833474 16.015625 78.703125 C13.98716301 80.86776064 13.98716301 80.86776064 12.76147461 83.11914062 C11 85 11 85 8.1809082 85.45410156 C7.06546631 85.4331543 5.95002441 85.41220703 4.80078125 85.390625 C3.59228516 85.37773437 2.38378906 85.36484375 1.13867188 85.3515625 C-0.12396484 85.31804687 -1.38660156 85.28453125 -2.6875 85.25 C-3.96173828 85.23195313 -5.23597656 85.21390625 -6.54882812 85.1953125 C-9.69996841 85.14810441 -12.8496114 85.08226384 -16 85 C-14.64397927 81.99322527 -13.10904732 79.83123343 -10.83203125 77.453125 C-10.19297852 76.78047607 -9.55392578 76.10782715 -8.89550781 75.41479492 C-7.86441895 74.34322144 -7.86441895 74.34322144 -6.8125 73.25 C-5.36562572 71.73071603 -3.91901788 70.21117828 -2.47265625 68.69140625 C-1.36301514 67.52955811 -1.36301514 67.52955811 -0.23095703 66.34423828 C3.91832513 61.98426812 8.01802565 57.57780131 12.12573242 53.17871094 C12.70814697 52.55641602 13.29056152 51.93412109 13.890625 51.29296875 C14.42751953 50.71337402 14.96441406 50.1337793 15.51757812 49.53662109 C17 48 17 48 19.484375 45.86328125 C21.22675903 44.11282725 21.22675903 44.11282725 21.0390625 41.77734375 C19.55001596 37.79722311 17.50128307 34.23386397 15.375 30.5625 C11.49856385 23.7493698 7.87057662 16.8833116 4.47265625 9.8203125 C3.10984984 7.0106262 3.10984984 7.0106262 1.30859375 4.8046875 C0 3 0 3 0 0 Z " fill="#0B4D93" transform="translate(479,198)"/>
<path d="M0 0 C31.35 0 62.7 0 95 0 C95 3.3 95 6.6 95 10 C75.86 10 56.72 10 37 10 C36.34 12.97 35.68 15.94 35 19 C34.34 20.98 33.68 22.96 33 25 C52.14 25 71.28 25 91 25 C91.0825 32.321875 91.165 39.64375 91.25 47.1875 C91.28641602 49.49129639 91.32283203 51.79509277 91.36035156 54.16870117 C91.37203779 56.00178089 91.38222977 57.83487101 91.390625 59.66796875 C91.41108887 60.61401978 91.43155273 61.5600708 91.45263672 62.53479004 C91.45491953 66.84645841 91.40736459 69.31624037 89.16308594 73.08325195 C85.7830648 76.07834743 83.01816578 76.12164732 78.67578125 76.09765625 C77.64775391 76.09443359 76.61972656 76.09121094 75.56054688 76.08789062 C74.48869141 76.07951172 73.41683594 76.07113281 72.3125 76.0625 C70.68731445 76.05573242 70.68731445 76.05573242 69.02929688 76.04882812 C66.35280915 76.03703743 63.67643223 76.02058063 61 76 C61.99 73.03 62.98 70.06 64 67 C68.29 66.67 72.58 66.34 77 66 C77.33 55.77 77.66 45.54 78 35 C61.83 35 45.66 35 29 35 C28.01 38.63 27.02 42.26 26 46 C25.19719434 48.55324904 24.37255449 51.09980548 23.51953125 53.63671875 C23.30181564 54.28703568 23.08410004 54.9373526 22.85978699 55.6073761 C22.18023191 57.63506276 21.49646742 59.66129803 20.8125 61.6875 C20.34411798 63.08258729 19.87601717 64.47776903 19.40820312 65.87304688 C18.27587897 69.2499782 17.13784079 72.62490378 16 76 C11.05 76 6.1 76 1 76 C3.69235983 65.35830039 7.30316496 55.05767219 10.875 44.6875 C11.49378263 42.88095972 12.11227412 41.0743197 12.73046875 39.26757812 C16.08269857 29.48550258 19.49722672 19.72918587 23 10 C15.41 10 7.82 10 0 10 C0 6.7 0 3.4 0 0 Z " fill="#2E2B2C" transform="translate(281,340)"/>
<path d="M0 0 C0.69649658 0.01571045 1.39299316 0.0314209 2.1105957 0.04760742 C2.86791992 0.05727539 3.62524414 0.06694336 4.40551758 0.0769043 C5.58404297 0.11460937 5.58404297 0.11460937 6.78637695 0.15307617 C7.58366211 0.16661133 8.38094727 0.18014648 9.20239258 0.1940918 C11.16817663 0.22940528 13.13361278 0.2832117 15.09887695 0.34057617 C14.43887695 1.33057617 13.77887695 2.32057617 13.09887695 3.34057617 C13.6972084 3.33978058 14.29553986 3.33898499 14.91200256 3.33816528 C21.1583279 3.33572125 27.40341531 3.37503069 33.64941406 3.43823242 C35.97813156 3.45636356 38.30695641 3.46396619 40.63574219 3.46069336 C43.99017943 3.45782816 47.3424032 3.49323038 50.6965332 3.53588867 C51.73221939 3.52679474 52.76790558 3.51770081 53.8349762 3.5083313 C59.98829354 3.63113283 63.43009005 4.49321648 67.87083435 8.86105347 C70.75188801 12.3320929 70.22584314 15.90316596 70.1965332 20.19213867 C70.19511826 20.96617035 70.19370331 21.74020203 70.19224548 22.53768921 C70.18664099 25.01369059 70.17408779 27.48960205 70.16137695 29.96557617 C70.15636253 31.6426582 70.15179952 33.31974164 70.14770508 34.99682617 C70.1366701 39.11144423 70.11940249 43.22599495 70.09887695 47.34057617 C65.14887695 47.34057617 60.19887695 47.34057617 55.09887695 47.34057617 C55.09887695 36.78057617 55.09887695 26.22057617 55.09887695 15.34057617 C34.30887695 15.01057617 13.51887695 14.68057617 -7.90112305 14.34057617 C-7.90112305 25.23057617 -7.90112305 36.12057617 -7.90112305 47.34057617 C-12.85112305 47.34057617 -17.80112305 47.34057617 -22.90112305 47.34057617 C-22.90112305 33.15057617 -22.90112305 18.96057617 -22.90112305 4.34057617 C-16.96112305 4.01057617 -11.02112305 3.68057617 -4.90112305 3.34057617 C-1.90112305 0.34057617 -1.90112305 0.34057617 0 0 Z " fill="#2F2B2C" transform="translate(554.901123046875,338.659423828125)"/>
<path d="M0 0 C10.92008076 5.33087813 19.35046727 13.74083741 24 25 C25.38460737 29.7089238 25.2230429 34.37750471 25.25 39.25 C25.270625 40.16652344 25.29125 41.08304688 25.3125 42.02734375 C25.35583517 49.62183251 23.6339972 55.29108209 20 62 C19.34 62 18.68 62 18 62 C17.773125 62.721875 17.54625 63.44375 17.3125 64.1875 C15.73664872 67.56432417 13.79123384 69.55767039 11 72 C10.34 72 9.68 72 9 72 C9 72.66 9 73.32 9 74 C7.3125 75.40234375 7.3125 75.40234375 5 76.9375 C4.2575 77.44152344 3.515 77.94554687 2.75 78.46484375 C-3.71366603 82.07311186 -9.41741165 83.53783177 -16.8125 83.4375 C-17.99380493 83.42614014 -17.99380493 83.42614014 -19.19897461 83.41455078 C-31.56905224 83.06674152 -41.69352338 77.77115354 -50.1875 68.875 C-59.17678626 58.28562079 -61.78955225 47.5658143 -61.17919922 34.08642578 C-60.41233685 25.15780755 -57.02982584 17.53231132 -51 11 C-50.41734375 10.36191406 -49.8346875 9.72382813 -49.234375 9.06640625 C-46.11848385 5.8082679 -43.12355691 2.94723521 -39 1 C-38.01 1 -37.02 1 -36 1 C-35.40738625 4.16060669 -35.27105043 6.85271099 -36 10 C-38.04142767 12.26389095 -40.27476567 14.00621312 -42.66796875 15.890625 C-50.20116667 22.70457287 -51.07505102 32.27927644 -51.5625 41.8125 C-51.60568359 42.60076172 -51.64886719 43.38902344 -51.69335938 44.20117188 C-51.79878321 46.13394215 -51.89983094 48.06695026 -52 50 C-51.34 50 -50.68 50 -50 50 C-49.75765625 50.59167969 -49.5153125 51.18335938 -49.265625 51.79296875 C-45.40013636 60.90660158 -40.54464583 65.9384388 -32 71 C-24.04416557 74.10142698 -13.79954245 74.78318344 -5.76171875 71.796875 C-3.04057584 70.33872535 -0.52290605 68.77619655 2 67 C2.928125 66.38125 3.85625 65.7625 4.8125 65.125 C11.75404651 58.38178339 15.17091198 51.69097667 15.38061523 41.89794922 C15.35487867 32.05315441 14.67802489 23.4404473 7.5 16 C5.65876473 14.32614975 3.91644789 12.94829843 1.796875 11.63671875 C0 10 0 10 -0.390625 7.51953125 C-0.34421875 6.62621094 -0.2978125 5.73289063 -0.25 4.8125 C-0.21390625 3.91144531 -0.1778125 3.01039063 -0.140625 2.08203125 C-0.09421875 1.39496094 -0.0478125 0.70789063 0 0 Z " fill="#F2C02C" transform="translate(623,200)"/>
<path d="M0 0 C4.95 0 9.9 0 15 0 C15 0.99 15 1.98 15 3 C28.2 3 41.4 3 55 3 C55 6.63 55 10.26 55 14 C43.615 14.495 43.615 14.495 32 15 C38.25049643 18.90807613 38.25049643 18.90807613 44.50585938 22.80834961 C45.27736328 23.29311768 46.04886719 23.77788574 46.84375 24.27734375 C47.63974609 24.77484131 48.43574219 25.27233887 49.25585938 25.78491211 C49.83142578 26.18589111 50.40699219 26.58687012 51 27 C51 27.33 51 27.66 51 28 C36.81297969 29.2866699 27.20465927 28.51587402 15.43359375 20.1875 C13.34418059 18.77018609 12.02313576 18.00590386 9.55078125 17.375 C6.27475946 18.17770059 3.90672096 19.76173402 1.0715332 21.55712891 C-11.32481645 29.26166424 -22.76209313 29.13345248 -37 28 C-34.26667107 25.85744037 -31.53241997 24.12159688 -28.453125 22.51953125 C-27.69161133 22.12096924 -26.93009766 21.72240723 -26.14550781 21.31176758 C-25.18999023 20.81700928 -24.23447266 20.32225098 -23.25 19.8125 C-20.1975 18.224375 -17.145 16.63625 -14 15 C-26.87 14.505 -26.87 14.505 -40 14 C-40 10.37 -40 6.74 -40 3 C-26.8 3 -13.6 3 0 3 C0 2.01 0 1.02 0 0 Z " fill="#2E2B2C" transform="translate(571,389)"/>
<path d="M0 0 C4.95 0 9.9 0 15 0 C15 15.84 15 31.68 15 48 C17.97 48 20.94 48 24 48 C24 51.3 24 54.6 24 58 C21.03 58 18.06 58 15 58 C15 63.94 15 69.88 15 76 C10.05 76 5.1 76 0 76 C0 70.06 0 64.12 0 58 C-9.57 58 -19.14 58 -29 58 C-29 54.7 -29 51.4 -29 48 C-19.43 48 -9.86 48 0 48 C0 32.16 0 16.32 0 0 Z " fill="#302C2D" transform="translate(727,340)"/>
<path d="M0 0 C0 3.3 0 6.6 0 10 C-4.62 10 -9.24 10 -14 10 C-14 12.64 -14 15.28 -14 18 C-9.38 18 -4.76 18 0 18 C0 20.97 0 23.94 0 27 C-4.62 27 -9.24 27 -14 27 C-14 43.17 -14 59.34 -14 76 C-17.63 76 -21.26 76 -25 76 C-25 59.83 -25 43.66 -25 27 C-29.62 27 -34.24 27 -39 27 C-39 24.03 -39 21.06 -39 18 C-34.38 18 -29.76 18 -25 18 C-25 15.69 -25 13.38 -25 11 C-28.96 11 -32.92 11 -37 11 C-37 7.7 -37 4.4 -37 1 C-24.64865646 0.17362576 -12.3779494 -0.12350504 0 0 Z " fill="#2F2B2C" transform="translate(695,340)"/>
<path d="M0 0 C4.62 0 9.24 0 14 0 C14.33 2.64 14.66 5.28 15 8 C16.65 8 18.3 8 20 8 C20 5.36 20 2.72 20 0 C24.95 0 29.9 0 35 0 C35 2.64 35 5.28 35 8 C36.65 8 38.3 8 40 8 C40.33 5.36 40.66 2.72 41 0 C45.62 0 50.24 0 55 0 C54.67 2.31 54.34 4.62 54 7 C54.99 7.33 55.98 7.66 57 8 C57 10.97 57 13.94 57 17 C49.74 17 42.48 17 35 17 C35 21.29 35 25.58 35 30 C30.05 30 25.1 30 20 30 C20 25.71 20 21.42 20 17 C13.07 17 6.14 17 -1 17 C-1 14.03 -1 11.06 -1 8 C-0.01 8 0.98 8 2 8 C1.34 5.36 0.68 2.72 0 0 Z " fill="#2D2A2B" transform="translate(551,356)"/>
<path d="M0 0 C0.3042733 6.43481693 0.41321865 10.4535197 -3 16 C-3.52811465 21.19312738 -3.50154239 26.99485869 -2 32 C-0.25160856 33.29165425 -0.25160856 33.29165425 2 34 C2.74765625 34.50144531 3.4953125 35.00289062 4.265625 35.51953125 C8.95301856 38.05742005 13.8145567 37.77673769 19 37 C22.14954095 34.93580788 22.14954095 34.93580788 24 32 C24.5775 31.29875 25.155 30.5975 25.75 29.875 C28.56500793 25.65248811 28.6744103 20.90480218 28 16 C27.34 15.21625 26.68 14.4325 26 13.625 C22.8440509 9.48281681 23.68274439 5.03202644 24 0 C27 0 27 0 28.71875 1.609375 C29.60046875 2.66898438 29.60046875 2.66898438 30.5 3.75 C31.38171875 4.79414063 31.38171875 4.79414063 32.28125 5.859375 C32.8484375 6.56578125 33.415625 7.2721875 34 8 C34.83337891 8.90492188 34.83337891 8.90492188 35.68359375 9.828125 C38.62263529 14.67710748 37.84710778 21.51436027 37 27 C34.55448567 34.71811262 31.16688134 40.16059928 24 44 C16.98724078 46.73312807 8.34046148 47.58807769 1.125 44.9375 C-5.30884719 40.94851474 -10.97068642 35.48084237 -13 28 C-13.79789368 20.96701959 -14.09444309 13.91871538 -10.34765625 7.6875 C-4.20833333 0 -4.20833333 0 0 0 Z " fill="#F1BD22" transform="translate(593,218)"/>
<path d="M0 0 C2.93423195 1.79646854 4.47205355 2.9441071 6 6 C6.30859375 7.98828125 6.30859375 7.98828125 6.4375 10.3125 C6.49808594 11.07175781 6.55867187 11.83101562 6.62109375 12.61328125 C6 15 6 15 3.01147461 16.86669922 C0.73939339 18.70774815 0.07085266 19.68172843 -0.57270813 22.57261658 C-0.79158875 25.89979216 -0.83044451 29.1851684 -0.8046875 32.51953125 C-0.81839386 33.73323898 -0.83210022 34.94694672 -0.84622192 36.19743347 C-0.88357718 40.06949747 -0.87980275 43.9402811 -0.875 47.8125 C-0.89312264 50.43947322 -0.91392394 53.06642943 -0.9375 55.69335938 C-0.9894033 62.12903193 -1.00755276 68.56413741 -1 75 C-3.64 75 -6.28 75 -9 75 C-9 56.85 -9 38.7 -9 20 C-10.32 19.34 -11.64 18.68 -13 18 C-15.83953044 13.74070434 -15.73987876 9.99617057 -15 5 C-11.43998918 -0.93335137 -6.35550428 -1.1583924 0 0 Z " fill="#25609E" transform="translate(610,168)"/>
<path d="M0 0 C4.62 0 9.24 0 14 0 C23 17.5 23 17.5 23 23 C21.02 23.33 19.04 23.66 17 24 C17.5053125 25.13179688 18.010625 26.26359375 18.53125 27.4296875 C19.18769289 28.91137289 19.84393237 30.39314841 20.5 31.875 C20.83386719 32.62136719 21.16773438 33.36773437 21.51171875 34.13671875 C21.82753906 34.85214844 22.14335938 35.56757813 22.46875 36.3046875 C22.76201172 36.96452637 23.05527344 37.62436523 23.35742188 38.30419922 C24 40 24 40 24 42 C19.05 42 14.1 42 9 42 C7.66035453 38.73162389 6.3280741 35.46057452 5 32.1875 C4.42765625 30.7943457 4.42765625 30.7943457 3.84375 29.37304688 C3.4828125 28.48037109 3.121875 27.58769531 2.75 26.66796875 C2.41484375 25.84578857 2.0796875 25.0236084 1.734375 24.17651367 C1 22 1 22 1 19 C2.98 19 4.96 19 7 19 C6.57847656 17.87980469 6.15695312 16.75960938 5.72265625 15.60546875 C5.16924176 14.13282342 4.61585795 12.66016657 4.0625 11.1875 C3.64581055 10.08051758 3.64581055 10.08051758 3.22070312 8.95117188 C2.95322266 8.23896484 2.68574219 7.52675781 2.41015625 6.79296875 C2.16402588 6.1383667 1.91789551 5.48376465 1.66430664 4.80932617 C1.07962967 3.21688185 0.53644441 1.60933324 0 0 Z " fill="#333031" transform="translate(700,341)"/>
<path d="M0 0 C1.15468025 0.01061211 1.15468025 0.01061211 2.33268738 0.0214386 C4.77879178 0.049312 7.22256259 0.11202988 9.66796875 0.17578125 C11.33134702 0.20087357 12.99476137 0.22368512 14.65820312 0.24414062 C18.72485032 0.29911454 22.78976464 0.38533198 26.85546875 0.48828125 C26.93671368 4.63685029 26.8482404 8.39264642 25.85546875 12.42578125 C25.57703125 13.58400391 25.57703125 13.58400391 25.29296875 14.765625 C25.14859375 15.33410156 25.00421875 15.90257812 24.85546875 16.48828125 C19.92589616 16.56242446 14.99664794 16.61687942 10.06665039 16.65307617 C8.38950955 16.66816509 6.71240818 16.68863873 5.03540039 16.71459961 C2.62506371 16.75097936 0.21524856 16.76800611 -2.1953125 16.78125 C-2.94541092 16.79673386 -3.69550934 16.81221771 -4.46833801 16.82817078 C-9.61844307 16.8298367 -9.61844307 16.8298367 -12.11010742 15.2121582 C-13.55879576 12.79790559 -13.60806076 10.38827914 -13.73828125 7.62109375 C-11.81078896 0.69733854 -6.29492794 -0.219593 0 0 Z " fill="#FAFCFC" transform="translate(324.14453125,248.51171875)"/>
<path d="M0 0 C1.15468025 0.01061211 1.15468025 0.01061211 2.33268738 0.0214386 C4.77879178 0.049312 7.22256259 0.11202988 9.66796875 0.17578125 C11.33134702 0.20087357 12.99476137 0.22368512 14.65820312 0.24414062 C18.72556895 0.29485591 22.78792403 0.39269926 26.85546875 0.48828125 C26.19546875 5.76828125 25.53546875 11.04828125 24.85546875 16.48828125 C19.92533938 16.55714493 14.99687749 16.61687774 10.06665039 16.65307617 C8.38950955 16.66816509 6.71240818 16.68863873 5.03540039 16.71459961 C2.62506371 16.75097936 0.21524856 16.76800611 -2.1953125 16.78125 C-2.94541092 16.79673386 -3.69550934 16.81221771 -4.46833801 16.82817078 C-9.61844307 16.8298367 -9.61844307 16.8298367 -12.11010742 15.2121582 C-13.55879576 12.79790559 -13.60806076 10.38827914 -13.73828125 7.62109375 C-11.81078896 0.69733854 -6.29492794 -0.219593 0 0 Z " fill="#F7F9FB" transform="translate(694.14453125,248.51171875)"/>
<path d="M0 0 C7.91165326 -0.02095494 15.82320634 -0.0409921 23.73486328 -0.05175018 C27.41895736 -0.05703628 31.10302852 -0.06410319 34.78710938 -0.07543945 C38.3337896 -0.08628493 41.88044757 -0.09228037 45.4271431 -0.09487724 C46.78196183 -0.09672849 48.13677931 -0.10034338 49.49158859 -0.10573006 C51.38549365 -0.11296238 53.27942098 -0.11340824 55.17333984 -0.11352539 C56.79216568 -0.11685631 56.79216568 -0.11685631 58.44369507 -0.12025452 C61 0 61 0 63 1 C63 11.56 63 22.12 63 33 C62.67 33 62.34 33 62 33 C61.505 22.605 61.505 22.605 61 12 C59.68 11.34 58.36 10.68 57 10 C57.66 7.69 58.32 5.38 59 3 C54.38 3 49.76 3 45 3 C44.67 5.64 44.34 8.28 44 11 C42.35 11 40.7 11 39 11 C39 8.36 39 5.72 39 3 C34.05 3 29.1 3 24 3 C24 5.64 24 8.28 24 11 C22.35 11 20.7 11 19 11 C18.67 8.36 18.34 5.72 18 3 C13.38 3 8.76 3 4 3 C4.66 4.65 5.32 6.3 6 8 C6 8.99 6 9.98 6 11 C5.01 11 4.02 11 3 11 C3 13.97 3 16.94 3 20 C2.67 20 2.34 20 2 20 C1.67 24.29 1.34 28.58 1 33 C0.67 33 0.34 33 0 33 C0 22.11 0 11.22 0 0 Z " fill="#F1F1F1" transform="translate(547,353)"/>
<path d="M0 0 C2.64 0 5.28 0 8 0 C8.22059963 15.34392996 7.56291843 30.66945556 7 46 C4.03 46 1.06 46 -2 46 C-2.09594292 35.88335231 -2.09268704 25.79324729 -1.5625 15.6875 C-1.52326416 14.91881592 -1.48402832 14.15013184 -1.44360352 13.3581543 C-1.18581658 8.85603659 -0.70031802 4.4549642 0 0 Z " fill="#302E2F" transform="translate(659,370)"/>
<path d="M0 0 C2.97 0 5.94 0 9 0 C9.29014373 4.46134573 9.574695 8.92300602 9.85449219 13.38500977 C9.95003242 14.89682181 10.0469921 16.40854495 10.14550781 17.92016602 C10.75529171 27.29403783 11.14785406 36.59997286 11 46 C8.03 46 5.06 46 2 46 C1.34 30.82 0.68 15.64 0 0 Z " fill="#2F2C2D" transform="translate(684,370)"/>
<path d="M0 0 C3 2 3 2 3.66796875 4.03515625 C4.13156589 8.17480603 4.26442455 12.27416623 4.3125 16.4375 C4.34150391 17.27087891 4.37050781 18.10425781 4.40039062 18.96289062 C4.45848858 24.61626877 3.72708599 27.68262046 0 32 C-2.25 32.875 -2.25 32.875 -4 33 C-4 33.66 -4 34.32 -4 35 C-5.98 35.495 -5.98 35.495 -8 36 C-9.09659159 32.61053509 -9.11813778 31.27565483 -7.6875 27.9375 C-6.80362989 26.39891129 -5.91330126 24.86291785 -4.96484375 23.36328125 C-3.49649005 19.7667064 -3.26389393 16.09431215 -2.875 12.25 C-2.78863281 11.45722656 -2.70226562 10.66445312 -2.61328125 9.84765625 C-2.40199946 7.89916859 -2.20007533 5.94967024 -2 4 C-1.34 4 -0.68 4 0 4 C0 2.68 0 1.36 0 0 Z " fill="#F1BD23" transform="translate(643,228)"/>
<path d="M0 0 C0.99 0 1.98 0 3 0 C3 17.49 3 34.98 3 53 C1.68 53 0.36 53 -1 53 C-1.02526692 45.61271898 -1.0428316 38.22544902 -1.05493164 30.83813477 C-1.05997363 28.32283105 -1.06680703 25.80753028 -1.07543945 23.29223633 C-1.08751094 19.68570225 -1.09322949 16.07920677 -1.09765625 12.47265625 C-1.10281754 11.34038101 -1.10797882 10.20810577 -1.11329651 9.04151917 C-1.11337204 8.00051559 -1.11344757 6.95951202 -1.11352539 5.88696289 C-1.115746 4.96540909 -1.11796661 4.04385529 -1.12025452 3.09437561 C-1 1 -1 1 0 0 Z " fill="#044A90" transform="translate(604,188)"/>
<path d="M0 0 C7.59 0 15.18 0 23 0 C23 2.31 23 4.62 23 7 C15.41 7 7.82 7 0 7 C0 4.69 0 2.38 0 0 Z " fill="#FCFCFC" transform="translate(423,363)"/>
<path d="M0 0 C7.59 0 15.18 0 23 0 C23 1.65 23 3.3 23 5 C21 7 21 7 18.84521484 7.22705078 C17.97590332 7.21657715 17.1065918 7.20610352 16.2109375 7.1953125 C15.26992188 7.18886719 14.32890625 7.18242187 13.359375 7.17578125 C12.37453125 7.15902344 11.3896875 7.14226562 10.375 7.125 C9.38242187 7.11597656 8.38984375 7.10695313 7.3671875 7.09765625 C4.91121866 7.07404116 2.45572832 7.04110799 0 7 C0 4.69 0 2.38 0 0 Z " fill="#FCFBFC" transform="translate(461,363)"/>
<path d="M0 0 C0.3042733 6.43481693 0.41321865 10.4535197 -3 16 C-3.47265919 20.78961313 -3.32779168 25.36343712 -2 30 C-2.99 30 -3.98 30 -5 30 C-5.33 25.05 -5.66 20.1 -6 15 C-7.65 15 -9.3 15 -11 15 C-11 19.95 -11 24.9 -11 30 C-13.81093662 27.18906338 -13.33299068 25.2986708 -13.375 21.375 C-13.24933582 14.14561347 -12.30955676 9.42012102 -7.24609375 4.1875 C-2.60300926 0 -2.60300926 0 0 0 Z " fill="#F3C540" transform="translate(593,218)"/>
<path d="M0 0 C4.29 0 8.58 0 13 0 C12.67 3.63 12.34 7.26 12 11 C7.38 11 2.76 11 -2 11 C-1.34 7.37 -0.68 3.74 0 0 Z " fill="#2E2B2C" transform="translate(553,375)"/>
<path d="M0 0 C4.29 0 8.58 0 13 0 C14.19287411 3.87684087 15 6.91621923 15 11 C10.71 11 6.42 11 2 11 C0.80712589 7.12315913 0 4.08378077 0 0 Z " fill="#2D2A2A" transform="translate(591,375)"/>
<path d="M0 0 C4.1171097 4.78115965 5.13559402 7.76258093 5.09765625 13.984375 C5.09443359 14.91894531 5.09121094 15.85351562 5.08789062 16.81640625 C5.07951172 17.78449219 5.07113281 18.75257813 5.0625 19.75 C5.05798828 20.73355469 5.05347656 21.71710938 5.04882812 22.73046875 C5.03706483 25.15370791 5.02062684 27.57682273 5 30 C4.67 30 4.34 30 4 30 C3.95101562 28.96359375 3.90203125 27.9271875 3.8515625 26.859375 C3.77650403 25.48955792 3.70095753 24.11976752 3.625 22.75 C3.5940625 22.06808594 3.563125 21.38617188 3.53125 20.68359375 C3.31740626 17.01260962 2.98922945 14.13748384 1 11 C0.01 11.33 -0.98 11.66 -2 12 C-1.97679687 12.58265625 -1.95359375 13.1653125 -1.9296875 13.765625 C-1.77702661 20.70079103 -2.69117533 27.19878611 -4 34 C-4.66 33.67 -5.32 33.34 -6 33 C-5.83757813 32.34515625 -5.67515625 31.6903125 -5.5078125 31.015625 C-4.8736474 27.24965994 -4.85156562 23.55599479 -4.875 19.75 C-4.87693359 18.99726807 -4.87886719 18.24453613 -4.88085938 17.46899414 C-4.92142731 12.24868957 -5.24777526 7.1715451 -6 2 C-4.02 1.34 -2.04 0.68 0 0 Z " fill="#F3C53E" transform="translate(643,220)"/>
<path d="M0 0 C0 0.99 0 1.98 0 3 C-15.29006571 6.2617733 -30.60139473 9.29514964 -46 12 C-46 11.01 -46 10.02 -46 9 C-18.21985263 3.00660696 -18.21985263 3.00660696 -8.9375 1.125 C-7.83277344 0.90070313 -6.72804688 0.67640625 -5.58984375 0.4453125 C-3 0 -3 0 0 0 Z " fill="#D8D7D8" transform="translate(453,394)"/>
<path d="M0 0 C3 0 3 0 4.71875 1.609375 C5.3065625 2.31578125 5.894375 3.0221875 6.5 3.75 C7.0878125 4.44609375 7.675625 5.1421875 8.28125 5.859375 C8.8484375 6.56578125 9.415625 7.2721875 10 8 C10.56332031 8.5878125 11.12664063 9.175625 11.70703125 9.78125 C13.58963414 13.01181931 13.32102631 16.12767088 13.1875 19.75 C13.17396484 20.44738281 13.16042969 21.14476562 13.14648438 21.86328125 C13.1112945 23.57585541 13.05749155 25.28802941 13 27 C12.67 27 12.34 27 12 27 C12 22.38 12 17.76 12 13 C11.34 13 10.68 13 10 13 C9.34 14.32 8.68 15.64 8 17 C7.34 16.34 6.68 15.68 6 15 C5.01 15.495 5.01 15.495 4 16 C1.34493073 13.59384348 0.07835303 11.82040233 -0.265625 8.21875 C-0.25145444 5.46966145 -0.17296687 2.74344679 0 0 Z " fill="#F2C130" transform="translate(617,218)"/>
<path d="M0 0 C0 0.66 0 1.32 0 2 C-5.44148018 3.17147741 -10.88573396 4.3286648 -16.33300781 5.47290039 C-18.18441836 5.86387245 -20.03502146 6.25868916 -21.88476562 6.6574707 C-24.54873275 7.23108298 -27.2153288 7.79065727 -29.8828125 8.34765625 C-30.70492218 8.52780777 -31.52703186 8.70795929 -32.37405396 8.89356995 C-36.90270249 9.82350131 -40.41882296 10.13724015 -45 9 C-41.3561701 6.87001208 -37.50526206 6.10589675 -33.41796875 5.2734375 C-32.68556473 5.12089508 -31.95316071 4.96835266 -31.19856262 4.81118774 C-29.65175539 4.49077128 -28.10434884 4.17323621 -26.55639648 3.85839844 C-24.20419277 3.37840634 -21.85504738 2.88513905 -19.50585938 2.390625 C-17.99756247 2.07991914 -16.48910368 1.76999788 -14.98046875 1.4609375 C-14.28543747 1.31409515 -13.59040619 1.16725281 -12.87431335 1.01596069 C-8.52201148 0.14395666 -4.43337759 -0.13488027 0 0 Z " fill="#E0DEDF" transform="translate(452,385)"/>
<path d="M0 0 C0.66 0 1.32 0 2 0 C1.67 0.99 1.34 1.98 1 3 C0.88465811 4.70214111 0.82358959 6.40821409 0.79467773 8.11401367 C0.77473251 9.15486618 0.75478729 10.19571869 0.73423767 11.26811218 C0.71752518 12.39006485 0.70081268 13.51201752 0.68359375 14.66796875 C0.66281265 15.81791824 0.64203156 16.96786774 0.62062073 18.15266418 C0.55516658 21.83088125 0.49625926 25.50917048 0.4375 29.1875 C0.39431087 31.67904396 0.35069645 34.17058059 0.30664062 36.66210938 C0.19948939 42.77466301 0.09771517 48.88728864 0 55 C-0.33 55 -0.66 55 -1 55 C-1.02526605 47.32788798 -1.04283123 39.6557866 -1.05493164 31.98364258 C-1.05997377 29.37133381 -1.06680725 26.75902789 -1.07543945 24.14672852 C-1.08751036 20.40119732 -1.09322935 16.65570328 -1.09765625 12.91015625 C-1.10281754 11.73413345 -1.10797882 10.55811066 -1.11329651 9.34645081 C-1.11340981 7.72488319 -1.11340981 7.72488319 -1.11352539 6.07055664 C-1.115746 5.11347305 -1.11796661 4.15638947 -1.12025452 3.17030334 C-1 1 -1 1 0 0 Z " fill="#D5E3EF" transform="translate(610,187)"/>
<path d="M0 0 C0.86625 0.556875 0.86625 0.556875 1.75 1.125 C1.42 2.775 1.09 4.425 0.75 6.125 C-0.24 6.125 -1.23 6.125 -2.25 6.125 C-2.25 6.785 -2.25 7.445 -2.25 8.125 C-3.57 8.455 -4.89 8.785 -6.25 9.125 C-7.04953138 5.83803767 -7.34658936 4.41476808 -6.25 1.125 C-3.76424847 -0.67502697 -2.91724311 -1.13448343 0 0 Z " fill="#F1BB1D" transform="translate(641.25,254.875)"/>
<path d="M0 0 C1.15892509 0.00424484 1.15892509 0.00424484 2.34126282 0.00857544 C4.80709368 0.01976372 7.27256031 0.04486547 9.73828125 0.0703125 C11.41080204 0.08034407 13.08332853 0.08946961 14.75585938 0.09765625 C18.85430684 0.11969858 22.95248231 0.15421887 27.05078125 0.1953125 C27.30078125 6.8203125 27.30078125 6.8203125 25.05078125 10.1953125 C25.38078125 7.2253125 25.71078125 4.2553125 26.05078125 1.1953125 C21.40547446 1.26415722 16.76107066 1.35210554 12.11645508 1.45776367 C10.53647882 1.49101438 8.95638373 1.51904596 7.3762207 1.54174805 C5.10446546 1.57529266 2.83379922 1.62760477 0.5625 1.68359375 C-0.14385086 1.68998367 -0.85020172 1.6963736 -1.57795715 1.70295715 C-5.50329165 1.78698615 -5.50329165 1.78698615 -8.79370117 3.72729492 C-9.17502197 4.21174072 -9.55634277 4.69618652 -9.94921875 5.1953125 C-10.60921875 5.1953125 -11.26921875 5.1953125 -11.94921875 5.1953125 C-9.94084362 -0.82981289 -5.43530494 -0.07479861 0 0 Z " fill="#C5D5E6" transform="translate(323.94921875,248.8046875)"/>
<path d="M0 0 C0 0.66 0 1.32 0 2 C-14.59681093 5.62870159 -14.59681093 5.62870159 -22 4 C-22 3.67 -22 3.34 -22 3 C-19.64741656 2.49133331 -17.29338596 1.9929375 -14.9375 1.5 C-13.95233398 1.28537109 -13.95233398 1.28537109 -12.94726562 1.06640625 C-8.56860012 0.16047545 -4.49581296 -0.14031146 0 0 Z " fill="#D5D4D4" transform="translate(452,385)"/>
<path d="M0 0 C0 0.99 0 1.98 0 3 C-7.425 4.485 -7.425 4.485 -15 6 C-15 5.34 -15 4.68 -15 4 C-15.99 3.67 -16.98 3.34 -18 3 C-15.56318413 2.49645133 -13.12564561 1.99703244 -10.6875 1.5 C-9.99720703 1.35691406 -9.30691406 1.21382813 -8.59570312 1.06640625 C-5.67475227 0.47374956 -2.98891878 0 0 0 Z " fill="#DFDEDF" transform="translate(453,394)"/>
<path d="M0 0 C4 4.625 4 4.625 4 8 C-4.91 8 -13.82 8 -23 8 C-22.67 7.34 -22.34 6.68 -22 6 C-14.74 6.33 -7.48 6.66 0 7 C0 4.69 0 2.38 0 0 Z " fill="#27619F" transform="translate(547,275)"/>
<path d="M0 0 C2.64 1.65 5.28 3.3 8 5 C7.01 5.33 6.02 5.66 5 6 C5.33 6.99 5.66 7.98 6 9 C4.35 9 2.7 9 1 9 C1.33 9.99 1.66 10.98 2 12 C-1.875 10.25 -1.875 10.25 -3 8 C-2.525625 7.54625 -2.05125 7.0925 -1.5625 6.625 C0.09027808 5.06741796 0.09027808 5.06741796 1 3 C0.34 2.67 -0.32 2.34 -1 2 C-0.67 1.34 -0.34 0.68 0 0 Z " fill="#F2C132" transform="translate(592,250)"/>
<path d="M0 0 C0.66 0.33 1.32 0.66 2 1 C2.99 0.67 3.98 0.34 5 0 C5.33 1.98 5.66 3.96 6 6 C1.25 9 1.25 9 -1 9 C-1.125 2.25 -1.125 2.25 0 0 Z " fill="#F0BB1C" transform="translate(566,223)"/>
<path d="M0 0 C0 0.66 0 1.32 0 2 C-5.80766296 3.5056904 -10.9981863 4.21824777 -17 4 C-11.74396906 -0.47735969 -6.59322988 -0.11174966 0 0 Z " fill="#E6E4E5" transform="translate(438,398)"/>
<path d="M0 0 C0.94242204 3.65691972 1.6510457 7.2312936 2 11 C1.34 11.66 0.68 12.32 0 13 C-0.71408334 14.98356483 -1.38617742 16.98315437 -2 19 C-3.56454159 14.97985339 -2.46223974 11.30074319 -1.5625 7.25 C-1.34110352 6.20392578 -1.34110352 6.20392578 -1.11523438 5.13671875 C-0.75131967 3.4227979 -0.37670932 1.71115419 0 0 Z " fill="#3A6FA9" transform="translate(385,229)"/>
<path d="M0 0 C1.16180608 3.92759816 0.75984959 6.97279717 0 11 C-0.33 11.33 -0.66 11.66 -1 12 C-1.39569108 14.01311449 -1.74252191 16.03597208 -2.0625 18.0625 C-2.23910156 19.16722656 -2.41570312 20.27195313 -2.59765625 21.41015625 C-2.73042969 22.26480469 -2.86320312 23.11945313 -3 24 C-3.33 24 -3.66 24 -4 24 C-3.67589507 15.51739156 -3.20716464 7.94819063 0 0 Z " fill="#5582B2" transform="translate(409,222)"/>
<path d="M0 0 C4 2 4 2 4.75 4.125 C4.8325 4.74375 4.915 5.3625 5 6 C3.35 7.32 1.7 8.64 0 10 C0 6.7 0 3.4 0 0 Z " fill="#F3C53E" transform="translate(623,200)"/>
<path d="M0 0 C3 0 3 0 4.38671875 1.3125 C5.59114583 2.875 6.79557292 4.4375 8 6 C4.89448334 6 3.64738916 5.4606285 1 4 C1 6.31 1 8.62 1 11 C0.67 11 0.34 11 0 11 C0 7.37 0 3.74 0 0 Z " fill="#F4CA50" transform="translate(617,218)"/>
<path d="M0 0 C-0.33 1.32 -0.66 2.64 -1 4 C-2.258125 4.04125 -3.51625 4.0825 -4.8125 4.125 C-5.52019531 4.14820313 -6.22789062 4.17140625 -6.95703125 4.1953125 C-9 4 -9 4 -12 2 C-10.37548581 1.66430703 -8.75037083 1.3315204 -7.125 1 C-6.22007812 0.814375 -5.31515625 0.62875 -4.3828125 0.4375 C-2 0 -2 0 0 0 Z " fill="#D6D5D5" transform="translate(453,404)"/>
<path d="M0 0 C0.66 0.33 1.32 0.66 2 1 C1.265611 2.32129824 0.51183106 3.63183171 -0.25 4.9375 C-0.66765625 5.66839844 -1.0853125 6.39929688 -1.515625 7.15234375 C-3.25593617 9.31857318 -4.29561004 9.63594751 -7 10 C-5.33248852 6.05860922 -2.77289351 3.2107188 0 0 Z " fill="#366BA5" transform="translate(668,237)"/>
<path d="M0 0 C0 2.97 0 5.94 0 9 C-0.99 8.34 -1.98 7.68 -3 7 C-3 5.68 -3 4.36 -3 3 C-3.99 2.67 -4.98 2.34 -6 2 C-3 0 -3 0 0 0 Z " fill="#F2C439" transform="translate(587,201)"/>
<path d="M0 0 C0.66 0.99 1.32 1.98 2 3 C1.11054688 3.38285156 1.11054688 3.38285156 0.203125 3.7734375 C-2.21224538 5.11816498 -3.51211706 6.49214367 -5.25 8.625 C-5.77078125 9.25664062 -6.2915625 9.88828125 -6.828125 10.5390625 C-7.21484375 11.02117187 -7.6015625 11.50328125 -8 12 C-8.66 11.67 -9.32 11.34 -10 11 C-6.7 7.37 -3.4 3.74 0 0 Z " fill="#3369A4" transform="translate(493,249)"/>
<path d="M0 0 C0.33 1.32 0.66 2.64 1 4 C2.32 3.34 3.64 2.68 5 2 C4.34 3.32 3.68 4.64 3 6 C2.34 6 1.68 6 1 6 C0.67 6.66 0.34 7.32 0 8 C-0.99 8 -1.98 8 -3 8 C-1.125 1.125 -1.125 1.125 0 0 Z " fill="#F3C745" transform="translate(567,218)"/>
<path d="M0 0 C0 0.66 0 1.32 0 2 C-8.57142857 3.42857143 -8.57142857 3.42857143 -12 1 C-7.9472484 0.01751476 -4.16138263 -0.08159574 0 0 Z " fill="#CECCCD" transform="translate(452,385)"/>
<path d="M0 0 C0.33 0.99 0.66 1.98 1 3 C-1.31 5.31 -3.62 7.62 -6 10 C-6.66 9.67 -7.32 9.34 -8 9 C-5.36 6.03 -2.72 3.06 0 0 Z " fill="#D0DDEC" transform="translate(505,265)"/>
<path d="M0 0 C0.66 0 1.32 0 2 0 C2 1.65 2 3.3 2 5 C0.35 5.66 -1.3 6.32 -3 7 C-2.38722388 4.03824877 -1.74627478 2.61941217 0 0 Z " fill="#F2BB1C" transform="translate(575,260)"/>
<path d="M0 0 C0.99 0.99 1.98 1.98 3 3 C0.03 5.475 0.03 5.475 -3 8 C-3.042721 6.33388095 -3.04063832 4.66617115 -3 3 C-2 2 -1 1 0 0 Z " fill="#1A5799" transform="translate(814,217)"/>
<path d="M0 0 C0.66 0.33 1.32 0.66 2 1 C1.01 2.485 1.01 2.485 0 4 C-0.33 4.99 -0.66 5.98 -1 7 C-2.65 7 -4.3 7 -6 7 C-4.02 4.69 -2.04 2.38 0 0 Z " fill="#F1C63B" transform="translate(579,204)"/>
<path d="M0 0 C1.33332095 2.6666419 0.67102033 4.16680303 0 7 C-0.66 7 -1.32 7 -2 7 C-2.33 8.32 -2.66 9.64 -3 11 C-3.66 11 -4.32 11 -5 11 C-3.77472971 6.94718288 -2.30119506 3.55639236 0 0 Z " fill="#4476A9" transform="translate(284,173)"/>
<path d="M0 0 C1.32 0.33 2.64 0.66 4 1 C4 3.64 4 6.28 4 9 C1.47740939 7.02579865 1.0070192 6.03254358 0.3125 2.8125 C0.209375 1.884375 0.10625 0.95625 0 0 Z " fill="#F1C130" transform="translate(582,246)"/>
<path d="M0 0 C0.99 0 1.98 0 3 0 C3 0.99 3 1.98 3 3 C-0.33333333 6 -0.33333333 6 -3 6 C-2.42655063 3.13275314 -2.1385485 2.1385485 0 0 Z " fill="#F1BC1D" transform="translate(637,214)"/>
<path d="M0 0 C1.07310858 3.27185553 0.89263102 5.42947592 0.0625 8.75 C-0.13214844 9.54921875 -0.32679688 10.3484375 -0.52734375 11.171875 C-0.68332031 11.77515625 -0.83929688 12.3784375 -1 13 C-1.33 13 -1.66 13 -2 13 C-2.05391993 11.20866022 -2.09275571 9.41686101 -2.125 7.625 C-2.14820313 6.62726563 -2.17140625 5.62953125 -2.1953125 4.6015625 C-2 2 -2 2 0 0 Z " fill="#A7BFD9" transform="translate(388,211)"/>
<path d="M0 0 C0.66 0.33 1.32 0.66 2 1 C0.25 4.875 0.25 4.875 -2 6 C-2.33 6.66 -2.66 7.32 -3 8 C-3.66 7.67 -4.32 7.34 -5 7 C-3.70700306 4.11562221 -2.34058637 2.12780579 0 0 Z " fill="#F4C94D" transform="translate(589,219)"/>
<path d="M0 0 C0.33 0.99 0.66 1.98 1 3 C0.38125 3.2475 -0.2375 3.495 -0.875 3.75 C-3.35068687 5.20628639 -3.95125002 6.37812506 -5 9 C-5.66 8.67 -6.32 8.34 -7 8 C-4.69 5.36 -2.38 2.72 0 0 Z " fill="#346BA4" transform="translate(533,205)"/>
<path d="M0 0 C0.33 0.99 0.66 1.98 1 3 C-1.31 5.31 -3.62 7.62 -6 10 C-6.66 9.67 -7.32 9.34 -8 9 C-2.71428571 2.57142857 -2.71428571 2.57142857 0 0 Z " fill="#D1DEED" transform="translate(566,198)"/>
<path d="M0 0 C0 0.66 0 1.32 0 2 C-1.98 2.33 -3.96 2.66 -6 3 C-6 2.34 -6 1.68 -6 1 C-6.99 0.67 -7.98 0.34 -9 0 C-5.62182575 -0.84454356 -3.32534757 -1.10844919 0 0 Z " fill="#CDCBCC" transform="translate(444,397)"/>
<path d="M0 0 C0 0.33 0 0.66 0 1 C-1.45635371 1.22174933 -2.91522956 1.42698698 -4.375 1.625 C-5.18710937 1.74101562 -5.99921875 1.85703125 -6.8359375 1.9765625 C-7.55007813 1.98429687 -8.26421875 1.99203125 -9 2 C-9.66 1.34 -10.32 0.68 -11 0 C-7.18243176 -1.37432457 -3.92744671 -0.67975039 0 0 Z " fill="#D9D7D8" transform="translate(418,393)"/>
<path d="M0 0 C2.5625 2.25 2.5625 2.25 5 5 C4.8125 7.3125 4.8125 7.3125 4 9 C3.34 9 2.68 9 2 9 C0.50178941 5.62902617 0 3.79557881 0 0 Z " fill="#A9C1D9" transform="translate(236,244)"/>
<path d="M0 0 C0.6875 1.8125 0.6875 1.8125 1 4 C-0.3125 5.75 -0.3125 5.75 -2 7 C-2.66 7 -3.32 7 -4 7 C-2.92598892 4.08482708 -2.22189824 2.22189824 0 0 Z " fill="#F3C847" transform="translate(572,211)"/>
<path d="M0 0 C2.5 1.3125 2.5 1.3125 5 3 C5 3.99 5 4.98 5 6 C2.5 4.6875 2.5 4.6875 0 3 C0 2.01 0 1.02 0 0 Z " fill="#255E9E" transform="translate(368,203)"/>
<path d="M0 0 C0.99 0.33 1.98 0.66 3 1 C1.68 3.31 0.36 5.62 -1 8 C-1.93065133 5.39417629 -2.14917407 4.35801776 -1.0625 1.75 C-0.711875 1.1725 -0.36125 0.595 0 0 Z " fill="#1B589B" transform="translate(292,200)"/>
<path d="M0 0 C0.66 0.66 1.32 1.32 2 2 C1.7578125 4.1640625 1.7578125 4.1640625 1.125 6.625 C0.92132813 7.44226563 0.71765625 8.25953125 0.5078125 9.1015625 C0.34023438 9.72804688 0.17265625 10.35453125 0 11 C-0.33 11 -0.66 11 -1 11 C-1.125 3.375 -1.125 3.375 0 0 Z " fill="#1F5B9C" transform="translate(437,249)"/>
<path d="M0 0 C0.66 0.33 1.32 0.66 2 1 C1.34 2.65 0.68 4.3 0 6 C-1.32 5.67 -2.64 5.34 -4 5 C-3 2 -3 2 0 0 Z " fill="#F1BC19" transform="translate(628,205)"/>
<path d="M0 0 C0.6875 1.8125 0.6875 1.8125 1 4 C-0.4375 5.75 -0.4375 5.75 -2 7 C-2.66 6.34 -3.32 5.68 -4 5 C-2.68 3.35 -1.36 1.7 0 0 Z " fill="#2C639F" transform="translate(538,199)"/>
</svg>
